<?xml version="1.0" encoding="UTF-8" standalone="no"?>
<!DOCTYPE svg PUBLIC "-//W3C//DTD SVG 1.1//EN" "http://www.w3.org/Graphics/SVG/1.1/DTD/svg11.dtd">
<svg version="1.1" xmlns="http://www.w3.org/2000/svg" xmlns:xlink="http://www.w3.org/1999/xlink" preserveAspectRatio="xMidYMid meet" viewBox="0 0 1200 470" width="1200" height="470"><defs><path d="M23.68 453.37L23.68 22.11L1173.73 22.11L1173.73 453.37L23.68 453.37Z" id="c33uLvjCz5"></path><path d="M563.31 408.75L413.8 408.75L413.8 396.56L388.33 396.56L388.33 408.75L385.22 408.75L385.22 419.31L388.33 419.31L388.33 442.97L394.84 442.97L394.84 447.5L407.29 447.5L407.29 442.97L413.8 442.97L413.8 426.11L563.31 426.11L563.31 443.84L616.13 443.84L616.13 426.11L765.64 426.11L765.64 442.97L772.15 442.97L772.15 447.5L784.6 447.5L784.6 442.97L791.11 442.97L791.11 419.31L794.22 419.31L794.22 408.75L791.11 408.75L791.11 396.56L765.64 396.56L765.64 408.75L616.13 408.75L616.13 391.02L563.31 391.02L563.31 408.75Z" id="d23cYdBf6b"></path><path d="M1111.37 443.84L1164.2 443.84L1164.2 391.02L1111.37 391.02L1111.37 443.84Z" id="e1818GdxZ2"></path><path d="M1039.5 443.84L1092.32 443.84L1092.32 391.02L1039.5 391.02L1039.5 443.84Z" id="a2jQpR8SKJ"></path><path d="M967.62 443.84L1020.44 443.84L1020.44 391.02L967.62 391.02L967.62 443.84Z" id="aCL5yewu1"></path><path d="M895.74 443.84L948.57 443.84L948.57 391.02L895.74 391.02L895.74 443.84Z" id="b2cGEF3T1"></path><path d="M823.86 443.84L876.69 443.84L876.69 391.02L823.86 391.02L823.86 443.84Z" id="eyOysSovA"></path><path d="M293.77 443.84L346.59 443.84L346.59 391.02L293.77 391.02L293.77 443.84Z" id="f31fSNQPnG"></path><path d="M203.92 443.84L256.74 443.84L256.74 391.02L203.92 391.02L203.92 443.84Z" id="cUilLv5aR"></path><path d="M114.07 443.84L166.9 443.84L166.9 391.02L114.07 391.02L114.07 443.84Z" id="bqsCJxGxH"></path><path d="M33.21 443.84L86.03 443.84L86.03 391.02L33.21 391.02L33.21 443.84Z" id="ajhEQq47J"></path><path d="M141.03 336.88L135.27 336.88L135.27 324.69L109.81 324.69L109.81 336.88L106.69 336.88L106.69 347.44L109.81 347.44L109.81 371.09L116.31 371.09L116.31 375.63L128.77 375.63L128.77 371.09L135.27 371.09L135.27 354.23L141.03 354.23L141.03 371.97L193.85 371.97L193.85 354.23L199.6 354.23L199.6 371.09L206.11 371.09L206.11 375.63L218.56 375.63L218.56 371.09L225.07 371.09L225.07 347.44L228.19 347.44L228.19 336.88L225.07 336.88L225.07 324.69L199.6 324.69L199.6 336.88L193.85 336.88L193.85 319.14L141.03 319.14L141.03 336.88Z" id="b5Y5l97mC"></path><path d="M1111.37 371.97L1164.2 371.97L1164.2 319.14L1111.37 319.14L1111.37 371.97Z" id="asKWoKCVq"></path><path d="M1039.5 371.97L1092.32 371.97L1092.32 319.14L1039.5 319.14L1039.5 371.97Z" id="b5ywbnF0i"></path><path d="M967.62 371.97L1020.44 371.97L1020.44 319.14L967.62 319.14L967.62 371.97Z" id="a4LiODLBql"></path><path d="M895.74 371.97L948.57 371.97L948.57 319.14L895.74 319.14L895.74 371.97Z" id="f12QxmzaPD"></path><path d="M823.86 371.97L876.69 371.97L876.69 319.14L823.86 319.14L823.86 371.97Z" id="afyDooCJq"></path><path d="M751.99 371.97L804.81 371.97L804.81 319.14L751.99 319.14L751.99 371.97Z" id="j4uD0ST5"></path><path d="M680.11 371.97L732.93 371.97L732.93 319.14L680.11 319.14L680.11 371.97Z" id="aNuu7IHOr"></path><path d="M608.23 371.97L661.05 371.97L661.05 319.14L608.23 319.14L608.23 371.97Z" id="c3CIvVSBaK"></path><path d="M536.35 371.97L589.18 371.97L589.18 319.14L536.35 319.14L536.35 371.97Z" id="c2bxW7lEmq"></path><path d="M464.48 371.97L517.3 371.97L517.3 319.14L464.48 319.14L464.48 371.97Z" id="c1sVqtS6J7"></path><path d="M392.6 371.97L445.42 371.97L445.42 319.14L392.6 319.14L392.6 371.97Z" id="j11Q1caWjW"></path><path d="M320.72 371.97L373.54 371.97L373.54 319.14L320.72 319.14L320.72 371.97Z" id="dTo0tM8AF"></path><path d="M248.84 371.97L301.67 371.97L301.67 319.14L248.84 319.14L248.84 371.97Z" id="dmYb0bAbi"></path><path d="M33.21 371.97L86.03 371.97L86.03 319.14L33.21 319.14L33.21 371.97Z" id="dR4uXCVeZ"></path><path d="M1066.45 265L1060.69 265L1060.69 252.81L1035.23 252.81L1035.23 265L1032.11 265L1032.11 275.56L1035.23 275.56L1035.23 299.22L1041.73 299.22L1041.73 303.75L1054.19 303.75L1054.19 299.22L1060.69 299.22L1060.69 282.35L1066.45 282.35L1066.45 300.09L1119.27 300.09L1119.27 282.35L1125.03 282.35L1125.03 299.22L1131.53 299.22L1131.53 303.75L1143.99 303.75L1143.99 299.22L1150.49 299.22L1150.49 275.56L1153.61 275.56L1153.61 265L1150.49 265L1150.49 252.81L1125.03 252.81L1125.03 265L1119.27 265L1119.27 247.26L1066.45 247.26L1066.45 265Z" id="d3Z1mTbfYa"></path><path d="M949.65 300.09L1002.47 300.09L1002.47 247.26L949.65 247.26L949.65 300.09Z" id="eaHnpcjkK"></path><path d="M877.77 300.09L930.59 300.09L930.59 247.26L877.77 247.26L877.77 300.09Z" id="hbWIoPVUh"></path><path d="M805.89 300.09L858.72 300.09L858.72 247.26L805.89 247.26L805.89 300.09Z" id="a1lyUjCfaF"></path><path d="M734.02 300.09L786.84 300.09L786.84 247.26L734.02 247.26L734.02 300.09Z" id="k25qBngVHi"></path><path d="M662.14 300.09L714.96 300.09L714.96 247.26L662.14 247.26L662.14 300.09Z" id="c5EWvtpFl"></path><path d="M590.26 300.09L643.08 300.09L643.08 247.26L590.26 247.26L590.26 300.09Z" id="fkce0fui1"></path><path d="M518.38 300.09L571.21 300.09L571.21 247.26L518.38 247.26L518.38 300.09Z" id="a5R4tqkXxz"></path><path d="M446.51 300.09L499.33 300.09L499.33 247.26L446.51 247.26L446.51 300.09Z" id="aPYFZkj4K"></path><path d="M374.63 300.09L427.45 300.09L427.45 247.26L374.63 247.26L374.63 300.09Z" id="bg4kXFDHi"></path><path d="M302.75 300.09L355.57 300.09L355.57 247.26L302.75 247.26L302.75 300.09Z" id="j18x0vCe4"></path><path d="M230.87 300.09L283.7 300.09L283.7 247.26L230.87 247.26L230.87 300.09Z" id="a9B261xnkA"></path><path d="M132.04 300.09L184.86 300.09L184.86 247.26L132.04 247.26L132.04 300.09Z" id="arxiOHLO1"></path><path d="M33.21 300.09L86.03 300.09L86.03 247.26L33.21 247.26L33.21 300.09Z" id="a2HzTAO5k"></path><path d="M1093.4 228.21L1146.23 228.21L1146.23 175.39L1093.4 175.39L1093.4 228.21Z" id="boDCsjPfh"></path><path d="M1003.56 228.21L1056.38 228.21L1056.38 175.39L1003.56 175.39L1003.56 228.21Z" id="a54gHOn9Ah"></path><path d="M931.68 228.21L984.5 228.21L984.5 175.39L931.68 175.39L931.68 228.21Z" id="a9SN0CqQY"></path><path d="M859.8 228.21L912.63 228.21L912.63 175.39L859.8 175.39L859.8 228.21Z" id="e28kagNH2d"></path><path d="M787.93 228.21L840.75 228.21L840.75 175.39L787.93 175.39L787.93 228.21Z" id="c2UYWnbnaT"></path><path d="M716.05 228.21L768.87 228.21L768.87 175.39L716.05 175.39L716.05 228.21Z" id="bmHGKdj4a"></path><path d="M644.17 228.21L696.99 228.21L696.99 175.39L644.17 175.39L644.17 228.21Z" id="b12GgaTxds"></path><path d="M572.29 228.21L625.12 228.21L625.12 175.39L572.29 175.39L572.29 228.21Z" id="a7xVfFR24Y"></path><path d="M500.42 228.21L553.24 228.21L553.24 175.39L500.42 175.39L500.42 228.21Z" id="aCXxCRm1U"></path><path d="M428.54 228.21L481.36 228.21L481.36 175.39L428.54 175.39L428.54 228.21Z" id="bNQW8uOdk"></path><path d="M356.66 228.21L409.48 228.21L409.48 175.39L356.66 175.39L356.66 228.21Z" id="bCJsMdHcM"></path><path d="M284.78 228.21L337.61 228.21L337.61 175.39L284.78 175.39L284.78 228.21Z" id="cihC1p7zo"></path><path d="M212.91 228.21L265.73 228.21L265.73 175.39L212.91 175.39L212.91 228.21Z" id="b52bLu3CGY"></path><path d="M123.06 228.21L175.88 228.21L175.88 175.39L123.06 175.39L123.06 228.21Z" id="j4ZF62S5Ur"></path><path d="M33.21 228.21L86.03 228.21L86.03 175.39L33.21 175.39L33.21 228.21Z" id="c1nWtc2lID"></path><path d="M1075.44 121.24L1069.68 121.24L1069.68 109.06L1044.21 109.06L1044.21 121.24L1041.1 121.24L1041.1 131.81L1044.21 131.81L1044.21 155.47L1050.72 155.47L1050.72 159.99L1063.17 159.99L1063.17 155.47L1069.68 155.47L1069.68 138.6L1075.44 138.6L1075.44 156.33L1128.26 156.33L1128.26 138.6L1134.01 138.6L1134.01 155.47L1140.52 155.47L1140.52 159.99L1152.97 159.99L1152.97 155.47L1159.48 155.47L1159.48 131.81L1162.59 131.81L1162.59 121.24L1159.48 121.24L1159.48 109.06L1134.01 109.06L1134.01 121.24L1128.26 121.24L1128.26 103.51L1075.44 103.51L1075.44 121.24Z" id="c1mUsl3t7e"></path><path d="M967.62 156.33L1020.44 156.33L1020.44 103.51L967.62 103.51L967.62 156.33Z" id="db1AbMv3w"></path><path d="M895.74 156.33L948.57 156.33L948.57 103.51L895.74 103.51L895.74 156.33Z" id="a2kvN0RauQ"></path><path d="M823.86 156.33L876.69 156.33L876.69 103.51L823.86 103.51L823.86 156.33Z" id="aMDKQZIzh"></path><path d="M751.99 156.33L804.81 156.33L804.81 103.51L751.99 103.51L751.99 156.33Z" id="b9JGNc7im"></path><path d="M680.11 156.33L732.93 156.33L732.93 103.51L680.11 103.51L680.11 156.33Z" id="bO1UQLtOV"></path><path d="M608.23 156.33L661.05 156.33L661.05 103.51L608.23 103.51L608.23 156.33Z" id="c2kqS9sfjs"></path><path d="M536.35 156.33L589.18 156.33L589.18 103.51L536.35 103.51L536.35 156.33Z" id="a1ciY3fOcu"></path><path d="M464.47 156.33L517.3 156.33L517.3 103.51L464.47 103.51L464.47 156.33Z" id="ckMSbjdCn"></path><path d="M392.6 156.33L445.42 156.33L445.42 103.51L392.6 103.51L392.6 156.33Z" id="f2hLPcKGZC"></path><path d="M320.72 156.33L373.54 156.33L373.54 103.51L320.72 103.51L320.72 156.33Z" id="a3gKC7b0pc"></path><path d="M248.84 156.33L301.67 156.33L301.67 103.51L248.84 103.51L248.84 156.33Z" id="g1eWakBHTh"></path><path d="M176.97 156.33L229.79 156.33L229.79 103.51L176.97 103.51L176.97 156.33Z" id="a1bK8WrGxj"></path><path d="M105.09 156.33L157.91 156.33L157.91 103.51L105.09 103.51L105.09 156.33Z" id="c6iwL5teNw"></path><path d="M33.21 156.33L86.03 156.33L86.03 103.51L33.21 103.51L33.21 156.33Z" id="cs7Mj16G"></path><path d="M80.28 66.93L186.11 66.93L186.11 29.14L80.28 29.14L80.28 66.93Z" id="bwULvnr07"></path><path d="M926.99 56.12L1036.6 56.12L1036.6 22.11L926.99 22.11L926.99 56.12Z" id="dnXaM3TvD"></path></defs><g><g><g><use xlink:href="#c33uLvjCz5" opacity="1" fill="#000000" fill-opacity="0"></use><g><use xlink:href="#c33uLvjCz5" opacity="1" fill-opacity="0" stroke="#000000" stroke-width="0.19" stroke-opacity="1"></use></g></g><g><use xlink:href="#d23cYdBf6b" opacity="1" fill="#000000" fill-opacity="0"></use><g><use xlink:href="#d23cYdBf6b" opacity="1" fill-opacity="0" stroke="#000000" stroke-width="0.19" stroke-opacity="1"></use></g></g><g><use xlink:href="#e1818GdxZ2" opacity="1" fill="#000000" fill-opacity="0"></use><g><use xlink:href="#e1818GdxZ2" opacity="1" fill-opacity="0" stroke="#000000" stroke-width="0.19" stroke-opacity="1"></use></g></g><g><use xlink:href="#a2jQpR8SKJ" opacity="1" fill="#000000" fill-opacity="0"></use><g><use xlink:href="#a2jQpR8SKJ" opacity="1" fill-opacity="0" stroke="#000000" stroke-width="0.19" stroke-opacity="1"></use></g></g><g><use xlink:href="#aCL5yewu1" opacity="1" fill="#000000" fill-opacity="0"></use><g><use xlink:href="#aCL5yewu1" opacity="1" fill-opacity="0" stroke="#000000" stroke-width="0.19" stroke-opacity="1"></use></g></g><g><use xlink:href="#b2cGEF3T1" opacity="1" fill="#000000" fill-opacity="0"></use><g><use xlink:href="#b2cGEF3T1" opacity="1" fill-opacity="0" stroke="#000000" stroke-width="0.19" stroke-opacity="1"></use></g></g><g><use xlink:href="#eyOysSovA" opacity="1" fill="#000000" fill-opacity="0"></use><g><use xlink:href="#eyOysSovA" opacity="1" fill-opacity="0" stroke="#000000" stroke-width="0.19" stroke-opacity="1"></use></g></g><g><use xlink:href="#f31fSNQPnG" opacity="1" fill="#000000" fill-opacity="0"></use><g><use xlink:href="#f31fSNQPnG" opacity="1" fill-opacity="0" stroke="#000000" stroke-width="0.19" stroke-opacity="1"></use></g></g><g><use xlink:href="#cUilLv5aR" opacity="1" fill="#000000" fill-opacity="0"></use><g><use xlink:href="#cUilLv5aR" opacity="1" fill-opacity="0" stroke="#000000" stroke-width="0.19" stroke-opacity="1"></use></g></g><g><use xlink:href="#bqsCJxGxH" opacity="1" fill="#000000" fill-opacity="0"></use><g><use xlink:href="#bqsCJxGxH" opacity="1" fill-opacity="0" stroke="#000000" stroke-width="0.19" stroke-opacity="1"></use></g></g><g><use xlink:href="#ajhEQq47J" opacity="1" fill="#000000" fill-opacity="0"></use><g><use xlink:href="#ajhEQq47J" opacity="1" fill-opacity="0" stroke="#000000" stroke-width="0.19" stroke-opacity="1"></use></g></g><g><use xlink:href="#b5Y5l97mC" opacity="1" fill="#000000" fill-opacity="0"></use><g><use xlink:href="#b5Y5l97mC" opacity="1" fill-opacity="0" stroke="#000000" stroke-width="0.19" stroke-opacity="1"></use></g></g><g><use xlink:href="#asKWoKCVq" opacity="1" fill="#000000" fill-opacity="0"></use><g><use xlink:href="#asKWoKCVq" opacity="1" fill-opacity="0" stroke="#000000" stroke-width="0.19" stroke-opacity="1"></use></g></g><g><use xlink:href="#b5ywbnF0i" opacity="1" fill="#000000" fill-opacity="0"></use><g><use xlink:href="#b5ywbnF0i" opacity="1" fill-opacity="0" stroke="#000000" stroke-width="0.19" stroke-opacity="1"></use></g></g><g><use xlink:href="#a4LiODLBql" opacity="1" fill="#000000" fill-opacity="0"></use><g><use xlink:href="#a4LiODLBql" opacity="1" fill-opacity="0" stroke="#000000" stroke-width="0.19" stroke-opacity="1"></use></g></g><g><use xlink:href="#f12QxmzaPD" opacity="1" fill="#000000" fill-opacity="0"></use><g><use xlink:href="#f12QxmzaPD" opacity="1" fill-opacity="0" stroke="#000000" stroke-width="0.19" stroke-opacity="1"></use></g></g><g><use xlink:href="#afyDooCJq" opacity="1" fill="#000000" fill-opacity="0"></use><g><use xlink:href="#afyDooCJq" opacity="1" fill-opacity="0" stroke="#000000" stroke-width="0.19" stroke-opacity="1"></use></g></g><g><use xlink:href="#j4uD0ST5" opacity="1" fill="#000000" fill-opacity="0"></use><g><use xlink:href="#j4uD0ST5" opacity="1" fill-opacity="0" stroke="#000000" stroke-width="0.19" stroke-opacity="1"></use></g></g><g><use xlink:href="#aNuu7IHOr" opacity="1" fill="#000000" fill-opacity="0"></use><g><use xlink:href="#aNuu7IHOr" opacity="1" fill-opacity="0" stroke="#000000" stroke-width="0.19" stroke-opacity="1"></use></g></g><g><use xlink:href="#c3CIvVSBaK" opacity="1" fill="#000000" fill-opacity="0"></use><g><use xlink:href="#c3CIvVSBaK" opacity="1" fill-opacity="0" stroke="#000000" stroke-width="0.19" stroke-opacity="1"></use></g></g><g><use xlink:href="#c2bxW7lEmq" opacity="1" fill="#000000" fill-opacity="0"></use><g><use xlink:href="#c2bxW7lEmq" opacity="1" fill-opacity="0" stroke="#000000" stroke-width="0.19" stroke-opacity="1"></use></g></g><g><use xlink:href="#c1sVqtS6J7" opacity="1" fill="#000000" fill-opacity="0"></use><g><use xlink:href="#c1sVqtS6J7" opacity="1" fill-opacity="0" stroke="#000000" stroke-width="0.19" stroke-opacity="1"></use></g></g><g><use xlink:href="#j11Q1caWjW" opacity="1" fill="#000000" fill-opacity="0"></use><g><use xlink:href="#j11Q1caWjW" opacity="1" fill-opacity="0" stroke="#000000" stroke-width="0.19" stroke-opacity="1"></use></g></g><g><use xlink:href="#dTo0tM8AF" opacity="1" fill="#000000" fill-opacity="0"></use><g><use xlink:href="#dTo0tM8AF" opacity="1" fill-opacity="0" stroke="#000000" stroke-width="0.19" stroke-opacity="1"></use></g></g><g><use xlink:href="#dmYb0bAbi" opacity="1" fill="#000000" fill-opacity="0"></use><g><use xlink:href="#dmYb0bAbi" opacity="1" fill-opacity="0" stroke="#000000" stroke-width="0.19" stroke-opacity="1"></use></g></g><g><use xlink:href="#dR4uXCVeZ" opacity="1" fill="#000000" fill-opacity="0"></use><g><use xlink:href="#dR4uXCVeZ" opacity="1" fill-opacity="0" stroke="#000000" stroke-width="0.19" stroke-opacity="1"></use></g></g><g><use xlink:href="#d3Z1mTbfYa" opacity="1" fill="#000000" fill-opacity="0"></use><g><use xlink:href="#d3Z1mTbfYa" opacity="1" fill-opacity="0" stroke="#000000" stroke-width="0.19" stroke-opacity="1"></use></g></g><g><use xlink:href="#eaHnpcjkK" opacity="1" fill="#000000" fill-opacity="0"></use><g><use xlink:href="#eaHnpcjkK" opacity="1" fill-opacity="0" stroke="#000000" stroke-width="0.19" stroke-opacity="1"></use></g></g><g><use xlink:href="#hbWIoPVUh" opacity="1" fill="#000000" fill-opacity="0"></use><g><use xlink:href="#hbWIoPVUh" opacity="1" fill-opacity="0" stroke="#000000" stroke-width="0.19" stroke-opacity="1"></use></g></g><g><use xlink:href="#a1lyUjCfaF" opacity="1" fill="#000000" fill-opacity="0"></use><g><use xlink:href="#a1lyUjCfaF" opacity="1" fill-opacity="0" stroke="#000000" stroke-width="0.19" stroke-opacity="1"></use></g></g><g><use xlink:href="#k25qBngVHi" opacity="1" fill="#000000" fill-opacity="0"></use><g><use xlink:href="#k25qBngVHi" opacity="1" fill-opacity="0" stroke="#000000" stroke-width="0.19" stroke-opacity="1"></use></g></g><g><use xlink:href="#c5EWvtpFl" opacity="1" fill="#000000" fill-opacity="0"></use><g><use xlink:href="#c5EWvtpFl" opacity="1" fill-opacity="0" stroke="#000000" stroke-width="0.19" stroke-opacity="1"></use></g></g><g><use xlink:href="#fkce0fui1" opacity="1" fill="#000000" fill-opacity="0"></use><g><use xlink:href="#fkce0fui1" opacity="1" fill-opacity="0" stroke="#000000" stroke-width="0.19" stroke-opacity="1"></use></g></g><g><use xlink:href="#a5R4tqkXxz" opacity="1" fill="#000000" fill-opacity="0"></use><g><use xlink:href="#a5R4tqkXxz" opacity="1" fill-opacity="0" stroke="#000000" stroke-width="0.19" stroke-opacity="1"></use></g></g><g><use xlink:href="#aPYFZkj4K" opacity="1" fill="#000000" fill-opacity="0"></use><g><use xlink:href="#aPYFZkj4K" opacity="1" fill-opacity="0" stroke="#000000" stroke-width="0.19" stroke-opacity="1"></use></g></g><g><use xlink:href="#bg4kXFDHi" opacity="1" fill="#000000" fill-opacity="0"></use><g><use xlink:href="#bg4kXFDHi" opacity="1" fill-opacity="0" stroke="#000000" stroke-width="0.19" stroke-opacity="1"></use></g></g><g><use xlink:href="#j18x0vCe4" opacity="1" fill="#000000" fill-opacity="0"></use><g><use xlink:href="#j18x0vCe4" opacity="1" fill-opacity="0" stroke="#000000" stroke-width="0.19" stroke-opacity="1"></use></g></g><g><use xlink:href="#a9B261xnkA" opacity="1" fill="#000000" fill-opacity="0"></use><g><use xlink:href="#a9B261xnkA" opacity="1" fill-opacity="0" stroke="#000000" stroke-width="0.19" stroke-opacity="1"></use></g></g><g><use xlink:href="#arxiOHLO1" opacity="1" fill="#000000" fill-opacity="0"></use><g><use xlink:href="#arxiOHLO1" opacity="1" fill-opacity="0" stroke="#000000" stroke-width="0.19" stroke-opacity="1"></use></g></g><g><use xlink:href="#a2HzTAO5k" opacity="1" fill="#000000" fill-opacity="0"></use><g><use xlink:href="#a2HzTAO5k" opacity="1" fill-opacity="0" stroke="#000000" stroke-width="0.19" stroke-opacity="1"></use></g></g><g><use xlink:href="#boDCsjPfh" opacity="1" fill="#000000" fill-opacity="0"></use><g><use xlink:href="#boDCsjPfh" opacity="1" fill-opacity="0" stroke="#000000" stroke-width="0.19" stroke-opacity="1"></use></g></g><g><use xlink:href="#a54gHOn9Ah" opacity="1" fill="#000000" fill-opacity="0"></use><g><use xlink:href="#a54gHOn9Ah" opacity="1" fill-opacity="0" stroke="#000000" stroke-width="0.19" stroke-opacity="1"></use></g></g><g><use xlink:href="#a9SN0CqQY" opacity="1" fill="#000000" fill-opacity="0"></use><g><use xlink:href="#a9SN0CqQY" opacity="1" fill-opacity="0" stroke="#000000" stroke-width="0.19" stroke-opacity="1"></use></g></g><g><use xlink:href="#e28kagNH2d" opacity="1" fill="#000000" fill-opacity="0"></use><g><use xlink:href="#e28kagNH2d" opacity="1" fill-opacity="0" stroke="#000000" stroke-width="0.19" stroke-opacity="1"></use></g></g><g><use xlink:href="#c2UYWnbnaT" opacity="1" fill="#000000" fill-opacity="0"></use><g><use xlink:href="#c2UYWnbnaT" opacity="1" fill-opacity="0" stroke="#000000" stroke-width="0.19" stroke-opacity="1"></use></g></g><g><use xlink:href="#bmHGKdj4a" opacity="1" fill="#000000" fill-opacity="0"></use><g><use xlink:href="#bmHGKdj4a" opacity="1" fill-opacity="0" stroke="#000000" stroke-width="0.19" stroke-opacity="1"></use></g></g><g><use xlink:href="#b12GgaTxds" opacity="1" fill="#000000" fill-opacity="0"></use><g><use xlink:href="#b12GgaTxds" opacity="1" fill-opacity="0" stroke="#000000" stroke-width="0.19" stroke-opacity="1"></use></g></g><g><use xlink:href="#a7xVfFR24Y" opacity="1" fill="#000000" fill-opacity="0"></use><g><use xlink:href="#a7xVfFR24Y" opacity="1" fill-opacity="0" stroke="#000000" stroke-width="0.19" stroke-opacity="1"></use></g></g><g><use xlink:href="#aCXxCRm1U" opacity="1" fill="#000000" fill-opacity="0"></use><g><use xlink:href="#aCXxCRm1U" opacity="1" fill-opacity="0" stroke="#000000" stroke-width="0.19" stroke-opacity="1"></use></g></g><g><use xlink:href="#bNQW8uOdk" opacity="1" fill="#000000" fill-opacity="0"></use><g><use xlink:href="#bNQW8uOdk" opacity="1" fill-opacity="0" stroke="#000000" stroke-width="0.19" stroke-opacity="1"></use></g></g><g><use xlink:href="#bCJsMdHcM" opacity="1" fill="#000000" fill-opacity="0"></use><g><use xlink:href="#bCJsMdHcM" opacity="1" fill-opacity="0" stroke="#000000" stroke-width="0.19" stroke-opacity="1"></use></g></g><g><use xlink:href="#cihC1p7zo" opacity="1" fill="#000000" fill-opacity="0"></use><g><use xlink:href="#cihC1p7zo" opacity="1" fill-opacity="0" stroke="#000000" stroke-width="0.19" stroke-opacity="1"></use></g></g><g><use xlink:href="#b52bLu3CGY" opacity="1" fill="#000000" fill-opacity="0"></use><g><use xlink:href="#b52bLu3CGY" opacity="1" fill-opacity="0" stroke="#000000" stroke-width="0.19" stroke-opacity="1"></use></g></g><g><use xlink:href="#j4ZF62S5Ur" opacity="1" fill="#000000" fill-opacity="0"></use><g><use xlink:href="#j4ZF62S5Ur" opacity="1" fill-opacity="0" stroke="#000000" stroke-width="0.19" stroke-opacity="1"></use></g></g><g><use xlink:href="#c1nWtc2lID" opacity="1" fill="#000000" fill-opacity="0"></use><g><use xlink:href="#c1nWtc2lID" opacity="1" fill-opacity="0" stroke="#000000" stroke-width="0.19" stroke-opacity="1"></use></g></g><g><use xlink:href="#c1mUsl3t7e" opacity="1" fill="#000000" fill-opacity="0"></use><g><use xlink:href="#c1mUsl3t7e" opacity="1" fill-opacity="0" stroke="#000000" stroke-width="0.19" stroke-opacity="1"></use></g></g><g><use xlink:href="#db1AbMv3w" opacity="1" fill="#000000" fill-opacity="0"></use><g><use xlink:href="#db1AbMv3w" opacity="1" fill-opacity="0" stroke="#000000" stroke-width="0.19" stroke-opacity="1"></use></g></g><g><use xlink:href="#a2kvN0RauQ" opacity="1" fill="#000000" fill-opacity="0"></use><g><use xlink:href="#a2kvN0RauQ" opacity="1" fill-opacity="0" stroke="#000000" stroke-width="0.19" stroke-opacity="1"></use></g></g><g><use xlink:href="#aMDKQZIzh" opacity="1" fill="#000000" fill-opacity="0"></use><g><use xlink:href="#aMDKQZIzh" opacity="1" fill-opacity="0" stroke="#000000" stroke-width="0.19" stroke-opacity="1"></use></g></g><g><use xlink:href="#b9JGNc7im" opacity="1" fill="#000000" fill-opacity="0"></use><g><use xlink:href="#b9JGNc7im" opacity="1" fill-opacity="0" stroke="#000000" stroke-width="0.19" stroke-opacity="1"></use></g></g><g><use xlink:href="#bO1UQLtOV" opacity="1" fill="#000000" fill-opacity="0"></use><g><use xlink:href="#bO1UQLtOV" opacity="1" fill-opacity="0" stroke="#000000" stroke-width="0.19" stroke-opacity="1"></use></g></g><g><use xlink:href="#c2kqS9sfjs" opacity="1" fill="#000000" fill-opacity="0"></use><g><use xlink:href="#c2kqS9sfjs" opacity="1" fill-opacity="0" stroke="#000000" stroke-width="0.19" stroke-opacity="1"></use></g></g><g><use xlink:href="#a1ciY3fOcu" opacity="1" fill="#000000" fill-opacity="0"></use><g><use xlink:href="#a1ciY3fOcu" opacity="1" fill-opacity="0" stroke="#000000" stroke-width="0.19" stroke-opacity="1"></use></g></g><g><use xlink:href="#ckMSbjdCn" opacity="1" fill="#000000" fill-opacity="0"></use><g><use xlink:href="#ckMSbjdCn" opacity="1" fill-opacity="0" stroke="#000000" stroke-width="0.19" stroke-opacity="1"></use></g></g><g><use xlink:href="#f2hLPcKGZC" opacity="1" fill="#000000" fill-opacity="0"></use><g><use xlink:href="#f2hLPcKGZC" opacity="1" fill-opacity="0" stroke="#000000" stroke-width="0.19" stroke-opacity="1"></use></g></g><g><use xlink:href="#a3gKC7b0pc" opacity="1" fill="#000000" fill-opacity="0"></use><g><use xlink:href="#a3gKC7b0pc" opacity="1" fill-opacity="0" stroke="#000000" stroke-width="0.19" stroke-opacity="1"></use></g></g><g><use xlink:href="#g1eWakBHTh" opacity="1" fill="#000000" fill-opacity="0"></use><g><use xlink:href="#g1eWakBHTh" opacity="1" fill-opacity="0" stroke="#000000" stroke-width="0.19" stroke-opacity="1"></use></g></g><g><use xlink:href="#a1bK8WrGxj" opacity="1" fill="#000000" fill-opacity="0"></use><g><use xlink:href="#a1bK8WrGxj" opacity="1" fill-opacity="0" stroke="#000000" stroke-width="0.19" stroke-opacity="1"></use></g></g><g><use xlink:href="#c6iwL5teNw" opacity="1" fill="#000000" fill-opacity="0"></use><g><use xlink:href="#c6iwL5teNw" opacity="1" fill-opacity="0" stroke="#000000" stroke-width="0.19" stroke-opacity="1"></use></g></g><g><use xlink:href="#cs7Mj16G" opacity="1" fill="#000000" fill-opacity="0"></use><g><use xlink:href="#cs7Mj16G" opacity="1" fill-opacity="0" stroke="#000000" stroke-width="0.19" stroke-opacity="1"></use></g></g><g><use xlink:href="#bwULvnr07" opacity="1" fill="#000000" fill-opacity="0"></use><g><use xlink:href="#bwULvnr07" opacity="1" fill-opacity="0" stroke="#000000" stroke-width="0.19" stroke-opacity="1"></use></g></g><g><use xlink:href="#dnXaM3TvD" opacity="1" fill="#000000" fill-opacity="0"></use><g><use xlink:href="#dnXaM3TvD" opacity="1" fill-opacity="0" stroke="#000000" stroke-width="0.19" stroke-opacity="1"></use></g></g></g></g></svg>